<svg width="61" height="47" viewBox="0 0 61 47" fill="none" xmlns="http://www.w3.org/2000/svg">
<g opacity="0.2">
<path d="M50.6075 27.9519L49.6431 25.5599C49.4603 25.1089 49.1387 24.7273 48.7246 24.47L46.5307 23.1042C44.9319 22.1098 45.1407 19.7276 46.8901 19.0279L49.2862 18.0646C49.7394 17.8823 50.1229 17.5613 50.3815 17.1478L51.7486 14.9599C52.7457 13.3679 55.1345 13.5736 55.8385 15.3183L56.8029 17.7103C56.9857 18.1613 57.3073 18.5429 57.7214 18.8002L59.9153 20.1635C61.5141 21.1579 61.3053 23.5402 59.5559 24.2439L57.1598 25.2064C56.7072 25.3885 56.3239 25.7085 56.0645 26.1208L54.6973 28.3095C53.7003 29.9023 51.3115 29.6941 50.6075 27.9519Z" fill="white"/>
<path d="M33.6906 9.62867L33.0291 7.9918C32.9045 7.68294 32.6846 7.42161 32.4013 7.24561L30.9007 6.31166C29.8062 5.63079 29.9503 4.0029 31.1447 3.52204L32.7868 2.8624C33.0979 2.7383 33.3582 2.51951 33.5351 2.23622L34.4716 0.739772C35.1535 -0.349297 36.7858 -0.208878 37.268 0.983057L37.9295 2.62074C38.0539 2.93097 38.2733 3.1914 38.5573 3.36693L40.0579 4.30088C41.1524 4.98094 41.0083 6.60964 39.8139 7.0905L38.1718 7.75014C37.8607 7.87424 37.6004 8.09466 37.4235 8.37632L36.487 9.87277C35.8051 10.9643 34.1728 10.8206 33.6906 9.62867Z" fill="white"/>
<path d="M4.34693 48.8508L3.53485 46.8359C3.37932 46.4563 3.10917 46.1338 2.76207 45.9183L0.912786 44.7696C-0.432221 43.9312 -0.257034 41.9245 1.21568 41.3351L3.23442 40.5236C3.61672 40.3701 3.93844 40.1015 4.15701 39.7545L5.308 37.9103C6.14628 36.569 8.15929 36.7437 8.75198 38.2124L9.56406 40.2256C9.71714 40.6068 9.98974 40.9277 10.3368 41.1457L12.1853 42.2935C13.5311 43.1295 13.3535 45.137 11.8824 45.7281L9.86449 46.5379C9.48312 46.6913 9.16017 46.9611 8.9419 47.3086L7.79091 49.1504C6.95017 50.495 4.93962 50.3178 4.34693 48.8508Z" fill="white"/>
<path d="M28.0526 25.0103L27.9405 25.0283C25.7593 25.3654 23.736 26.3669 22.1478 27.8954L22.048 27.9967L21.8417 28.2269C20.2894 30.0085 19.3907 32.2635 19.2933 34.6217L19.2867 34.8691L19.2933 34.758C19.2517 35.2646 19.314 35.7742 19.4764 36.256C19.6388 36.7377 19.898 37.1814 20.238 37.5599L41.5682 59.7903C45.7579 64.0258 52.5542 64.0707 56.775 59.9177C56.983 59.7136 57.1786 59.5046 57.3644 59.289C61.2251 54.8266 60.7266 48.0881 56.2519 44.238C56.1526 44.1523 56.0516 44.0684 55.949 43.9866L55.8631 43.9212L30.8556 25.7083C30.0471 25.1225 29.0424 24.872 28.0526 25.0095V25.0103ZM28.3326 29.9372L52.9177 47.8416L53.0413 47.9452C53.6474 48.4663 54.1387 49.107 54.4841 49.827C54.8295 50.5469 55.0215 51.3305 55.0479 52.1281C55.0744 52.9258 54.9348 53.7202 54.6378 54.4614C54.3409 55.2025 53.8932 55.8742 53.3229 56.4341L53.1649 56.5835C52.0534 57.5973 50.5914 58.1421 49.0856 58.1036C47.5799 58.0651 46.1478 57.4462 45.0899 56.377L24.2141 34.6209L24.2231 34.509C24.3329 33.3997 24.7779 32.3497 25.4993 31.4982L25.609 31.3725L25.5583 31.4198C26.2928 30.7132 27.2016 30.2127 28.1926 29.9691L28.3326 29.9372Z" fill="white"/>
<path d="M9.12734 1.2141L9.35082 1.22389C10.6614 1.31206 11.7183 1.9962 11.3131 3.1065L11.3303 3.05261L11.2934 3.2061C11.1783 3.73943 11.2119 4.29404 11.3908 4.80962C11.5696 5.3252 11.8867 5.78202 12.3077 6.13042L12.4387 6.23165C12.8316 6.50106 13.3392 6.74843 14.0907 7.0456L14.5262 7.21296L16.3444 7.88077C16.8748 8.07997 17.3202 8.25794 17.7557 8.44734C19.6467 9.26864 21.1022 10.2173 22.2524 11.5145L22.4661 11.7513C23.5789 13.0164 24.4167 14.4978 24.9265 16.1021C25.4363 17.7064 25.607 19.3987 25.4279 21.0721C25.3362 21.8011 24.7943 22.3922 24.0116 22.5612C21.972 22.8412 20.1051 23.8544 18.7618 25.4104L18.797 25.3696L18.5964 25.6969C17.674 27.2254 16.9773 28.8784 16.5277 30.6051L16.4213 31.0337L16.3264 31.4656C16.1937 32.2795 15.4832 32.8747 14.7218 32.8616C11.8378 33.0583 8.73521 32.5897 6.02473 30.9635C2.01345 28.5568 -0.206671 24.0568 0.0151774 17.1525L0.0233639 16.7346C0.214104 9.26455 2.27787 4.53355 5.54092 2.36031C6.80161 1.52024 8.16954 1.14389 9.35082 1.22389L9.12734 1.2141Z" fill="white"/>
</g>
</svg>
