<svg width="75" height="100" viewBox="0 0 75 100" fill="none" xmlns="http://www.w3.org/2000/svg">
<rect width="75" height="100" rx="16" fill="#F2F2F2"/>
<path d="M38.0156 55.4167C40.6156 55.4167 42.749 53.3667 42.749 50.8333C42.749 48.3 40.6156 46.25 38.0156 46.25C35.399 46.25 33.2656 48.3 33.2656 50.8333C33.2656 53.3667 35.399 55.4167 38.0156 55.4167Z" fill="#BCB8B6"/>
<path d="M49.9996 40.4167H46.0996C45.5496 40.4167 45.0663 40.0834 44.8996 39.6C44.3829 38.1 42.9496 37.0834 41.3329 37.0834H34.6829C33.0663 37.0834 31.6329 38.1 31.1163 39.6C30.9496 40.0834 30.4662 40.4167 29.9162 40.4167H28.9829V40C28.9829 39.3167 28.4163 38.75 27.7329 38.75C27.0329 38.75 26.4829 39.3167 26.4829 40V40.4167H26.0163C23.4329 40.4167 21.3496 42.4667 21.3496 45V58.3334C21.3496 60.8667 23.4329 62.9167 26.0163 62.9167H49.9996C52.5829 62.9167 54.6829 60.8667 54.6829 58.3334V45C54.6829 42.4667 52.5829 40.4167 49.9996 40.4167ZM38.0163 43.75C41.9996 43.75 45.2496 46.9334 45.2496 50.8334C45.2496 54.7334 41.9996 57.9167 38.0163 57.9167C34.0163 57.9167 30.7663 54.7334 30.7663 50.8334C30.7663 46.9334 34.0163 43.75 38.0163 43.75Z" fill="#BCB8B6"/>
</svg>
