<svg width="20" height="20" viewBox="0 0 20 20" fill="none" xmlns="http://www.w3.org/2000/svg">
<path d="M7.74029 18.4268C8.42475 18.4268 8.97961 17.8671 8.97961 17.1768C8.97961 16.4864 8.42475 15.9268 7.74029 15.9268C7.05584 15.9268 6.50098 16.4864 6.50098 17.1768C6.50098 17.8671 7.05584 18.4268 7.74029 18.4268Z" stroke="#FF7549" stroke-width="1.2" stroke-linecap="round" stroke-linejoin="round"/>
<path d="M14.603 18.4268C15.2934 18.4268 15.853 17.8671 15.853 17.1768C15.853 16.4864 15.2934 15.9268 14.603 15.9268C13.9127 15.9268 13.353 16.4864 13.353 17.1768C13.353 17.8671 13.9127 18.4268 14.603 18.4268Z" stroke="#FF7549" stroke-width="1.2" stroke-linecap="round" stroke-linejoin="round"/>
<path d="M15.6685 13.0307H6.71857C6.24844 13.0307 5.83925 12.6998 5.73477 12.2297L4.41144 6.14412C4.27214 5.50857 4.75098 4.91655 5.39524 4.91655H16.9918C17.6361 4.91655 18.1149 5.51727 17.9756 6.14412L16.6523 12.2297C16.5565 12.6998 16.1473 13.0307 15.6685 13.0307Z" stroke="#FF7549" stroke-width="1.5" stroke-linecap="round" stroke-linejoin="round"/>
<path d="M2 2H2.72261C3.20145 2 3.61064 2.33083 3.7064 2.79226L4.51607 6.57072" stroke="#FF7549" stroke-width="1.5" stroke-linecap="round" stroke-linejoin="round"/>
<path d="M14.7111 13.0307H5.63063C4.90802 13.0307 4.32471 13.614 4.32471 14.3366C4.32471 15.0592 4.90802 15.6425 5.63063 15.6425H16.522" stroke="#FF7549" stroke-width="1.5" stroke-linecap="round" stroke-linejoin="round"/>
</svg>
