<svg width="22" height="22" viewBox="0 0 22 22" fill="none" xmlns="http://www.w3.org/2000/svg">
<path d="M10.7194 19.7663C10.2229 19.7955 9.73616 19.6203 9.30783 19.4256C8.3538 19.007 7.61397 18.2379 7.35113 17.2546C7.32192 17.1475 7.30244 17.0502 7.28297 16.9626C7.2343 16.7095 7.20508 16.5148 7.20508 16.359C7.20508 15.4342 7.56529 14.5289 8.22726 13.8085L10.2327 11.5597C10.2327 11.5597 10.4857 11.2774 10.7291 11.0048C10.9822 11.2871 11.2256 11.5597 11.2256 11.5597L13.231 13.8085C13.893 14.5289 14.2532 15.4342 14.2532 16.359C14.2532 16.5148 14.224 16.7095 14.1753 16.9626C14.1461 17.0502 14.1266 17.1475 14.1071 17.2546C13.8443 18.2379 13.1045 19.007 12.1504 19.4256C11.6929 19.6105 11.2159 19.7273 10.7194 19.7663Z" stroke="white" stroke-width="1.5" stroke-linecap="round" stroke-linejoin="round"/>
<path d="M11.557 3.46998C11.2455 2.88589 11.0216 2.44783 11.0216 2.44783C10.8658 2.18499 10.564 2 10.2136 2C9.96045 2 9.69763 2.11681 9.53213 2.29204L5.20007 7.1595C3.77877 8.70736 3 10.6641 3 12.6695C3 13.0005 3.0584 13.4191 3.17522 13.9642C3.23363 14.1589 3.27257 14.3536 3.33098 14.5873C4.15845 17.6732 7.16654 19.7857 10.6224 19.9999C14.273 20.0194 17.5926 17.8193 18.4298 14.597C18.498 14.3731 18.5467 14.1492 18.6051 13.9642C18.7024 13.458 18.7608 13.0492 18.7608 12.7279V12.6014C18.7608 10.4889 17.69 8.10381 16.697 6.56569L15.7722 5.15411C15.6262 4.91074 15.3439 4.77448 15.0324 4.76475C14.7306 4.76475 14.4483 4.90098 14.2925 5.13462L13.2411 6.62409C13.2217 6.62409 12.2092 4.70632 11.557 3.46998Z" stroke="white" stroke-width="1.5" stroke-linecap="round" stroke-linejoin="round"/>
</svg>
