<svg width="35" height="35" viewBox="0 0 35 35" fill="none" xmlns="http://www.w3.org/2000/svg">
<path fill-rule="evenodd" clip-rule="evenodd" d="M19.0897 17.9464C20.3612 14.5009 25.2878 15.0721 24.4251 17.1773C26.0427 15.3523 24.7708 13.0118 22.1835 13.4188C20.1793 14.0794 19.0307 15.778 19.0901 17.9468L19.0897 17.9464Z" fill="white" fill-opacity="0.5"/>
<path d="M22.1847 13.4183C24.9191 12.7605 26.7269 13.7771 27.5593 15.6208C28.6732 18.0882 27.358 20.5417 25.5131 21.7151C22.3939 23.6991 19.4904 21.5503 23.8994 17.7653C25.2233 16.6288 25.6432 13.1445 22.1847 13.4183Z" fill="white"/>
<path d="M22.1836 13.4191C16.6237 15.486 19.7946 22.8554 22.1761 26.1144C24.2914 29.0112 20.6553 31.4933 18.2385 28.8132C13.9772 24.0932 15.7005 15.0455 22.1836 13.4191Z" fill="white"/>
<path d="M7 17.6234H4.375C3.67909 17.6225 3.01195 17.3437 2.51987 16.8481C2.02778 16.3526 1.75093 15.6808 1.75 14.9799V13.2176C1.75093 12.5168 2.02778 11.8449 2.51987 11.3494C3.01195 10.8538 3.67909 10.575 4.375 10.5741C4.60706 10.5741 4.82962 10.6669 4.99372 10.8322C5.15781 10.9974 5.25 11.2216 5.25 11.4553C5.25 11.689 5.15781 11.9131 4.99372 12.0783C4.82962 12.2436 4.60706 12.3364 4.375 12.3364C4.26009 12.3364 4.14631 12.3592 4.04015 12.4035C3.93399 12.4478 3.83753 12.5127 3.75628 12.5945C3.67503 12.6763 3.61058 12.7735 3.5666 12.8804C3.52263 12.9873 3.5 13.1019 3.5 13.2176V14.9799C3.5 15.0957 3.52263 15.2102 3.5666 15.3171C3.61058 15.4241 3.67503 15.5212 3.75628 15.603C3.83753 15.6848 3.93399 15.7497 4.04015 15.794C4.14631 15.8383 4.26009 15.8611 4.375 15.8611H7C7.23206 15.8611 7.45462 15.9539 7.61872 16.1192C7.78281 16.2844 7.875 16.5086 7.875 16.7423C7.875 16.976 7.78281 17.2001 7.61872 17.3654C7.45462 17.5306 7.23206 17.6234 7 17.6234ZM10.9183 33.4845H6.125C5.42909 33.4835 4.76195 33.2047 4.26987 32.7092C3.77779 32.2136 3.50093 31.5418 3.5 30.841V29.0786C3.50093 28.3778 3.77779 27.706 4.26987 27.2104C4.76195 26.7149 5.42909 26.4361 6.125 26.4351C6.35706 26.4351 6.57962 26.528 6.74372 26.6932C6.90781 26.8585 7 27.0826 7 27.3163C7 27.55 6.90781 27.7741 6.74372 27.9394C6.57962 28.1046 6.35706 28.1975 6.125 28.1975C6.01009 28.1975 5.89631 28.2202 5.79015 28.2645C5.68399 28.3088 5.58753 28.3737 5.50628 28.4555C5.42503 28.5374 5.36058 28.6345 5.31661 28.7414C5.27263 28.8483 5.25 28.9629 5.25 29.0786V30.841C5.25 30.9567 5.27263 31.0713 5.31661 31.1782C5.36058 31.2851 5.42503 31.3822 5.50628 31.464C5.58753 31.5459 5.68399 31.6108 5.79015 31.6551C5.89631 31.6993 6.01009 31.7221 6.125 31.7221H10.92C11.1521 31.7221 11.3746 31.815 11.5387 31.9802C11.7028 32.1455 11.795 32.3696 11.795 32.6033C11.795 32.837 11.7028 33.0611 11.5387 33.2264C11.3746 33.3916 11.1521 33.4845 10.92 33.4845H10.9183Z" fill="white"/>
<path d="M6.125 22.9104C5.42909 22.9094 4.76195 22.6306 4.26987 22.1351C3.77779 21.6395 3.50093 20.9677 3.5 20.2669V18.5045C3.50093 17.8037 3.77779 17.1319 4.26987 16.6363C4.76195 16.1408 5.42909 15.862 6.125 15.861C6.35706 15.861 6.57962 15.9539 6.74372 16.1191C6.90781 16.2844 7 16.5085 7 16.7422C7 16.9759 6.90781 17.2 6.74372 17.3653C6.57962 17.5305 6.35706 17.6234 6.125 17.6234C6.01009 17.6234 5.89631 17.6462 5.79015 17.6904C5.68399 17.7347 5.58753 17.7996 5.50628 17.8815C5.42503 17.9633 5.36058 18.0604 5.31661 18.1673C5.27263 18.2742 5.25 18.3888 5.25 18.5045V20.2669C5.25 20.3826 5.27263 20.4972 5.31661 20.6041C5.36058 20.711 5.42503 20.8081 5.50628 20.8899C5.58753 20.9718 5.68399 21.0367 5.79015 21.081C5.89631 21.1252 6.01009 21.148 6.125 21.148C6.35706 21.148 6.57962 21.2409 6.74372 21.4061C6.90781 21.5714 7 21.7955 7 22.0292C7 22.2629 6.90781 22.487 6.74372 22.6523C6.57962 22.8175 6.35706 22.9104 6.125 22.9104ZM25.375 7.04935H21.9975C21.7654 7.04935 21.5429 6.95651 21.3788 6.79126C21.2147 6.62601 21.1225 6.40188 21.1225 6.16818C21.1225 5.93448 21.2147 5.71035 21.3788 5.5451C21.5429 5.37985 21.7654 5.28701 21.9975 5.28701H25.375C25.4899 5.28701 25.6037 5.26422 25.7098 5.21993C25.816 5.17565 25.9125 5.11074 25.9937 5.02892C26.075 4.9471 26.1394 4.84996 26.1834 4.74305C26.2274 4.63614 26.25 4.52156 26.25 4.40584V2.6435C26.25 2.52779 26.2274 2.4132 26.1834 2.3063C26.1394 2.19939 26.075 2.10225 25.9937 2.02042C25.9125 1.9386 25.816 1.87369 25.7098 1.82941C25.6037 1.78513 25.4899 1.76234 25.375 1.76234H6.125C6.01009 1.76234 5.89631 1.78513 5.79015 1.82941C5.68399 1.87369 5.58753 1.9386 5.50628 2.02042C5.42503 2.10225 5.36058 2.19939 5.31661 2.3063C5.27263 2.4132 5.25 2.52779 5.25 2.6435V4.40584C5.25 4.52156 5.27263 4.63614 5.31661 4.74305C5.36058 4.84996 5.42503 4.9471 5.50628 5.02892C5.58753 5.11074 5.68399 5.17565 5.79015 5.21993C5.89631 5.26422 6.01009 5.28701 6.125 5.28701H17.92C18.1521 5.28701 18.3746 5.37985 18.5387 5.5451C18.7028 5.71035 18.795 5.93448 18.795 6.16818C18.795 6.40188 18.7028 6.62601 18.5387 6.79126C18.3746 6.95651 18.1521 7.04935 17.92 7.04935H6.125C5.42909 7.04841 4.76195 6.7696 4.26987 6.27405C3.77779 5.7785 3.50093 5.10666 3.5 4.40584V2.6435C3.50093 1.94269 3.77779 1.27085 4.26987 0.775294C4.76195 0.279743 5.42909 0.000932552 6.125 0H25.375C26.0709 0.000932552 26.738 0.279743 27.2301 0.775294C27.7222 1.27085 27.9991 1.94269 28 2.6435V4.40584C27.9991 5.10666 27.7222 5.7785 27.2301 6.27405C26.738 6.7696 26.0709 7.04841 25.375 7.04935ZM21.6755 9.92548C23.9649 9.92478 26.203 10.6078 28.1069 11.8882C30.0108 13.1685 31.4949 14.9887 32.3714 17.1185C33.248 19.2483 33.4777 21.5921 33.0315 23.8534C32.5853 26.1147 31.4832 28.1919 29.8646 29.8224C28.2461 31.4529 26.1837 32.5634 23.9384 33.0134C21.693 33.4635 19.3656 33.2328 17.2504 32.3507C15.1353 31.4686 13.3274 29.9746 12.0554 28.0577C10.7834 26.1408 10.1045 23.8871 10.1045 21.5816C10.1077 18.4918 11.3278 15.5295 13.4969 13.3443C15.6661 11.1592 18.6074 9.92968 21.6755 9.92548ZM21.6755 8.16314C19.0402 8.16314 16.464 8.95012 14.2728 10.4246C12.0816 11.899 10.3738 13.9947 9.36527 16.4466C8.35677 18.8985 8.0929 21.5965 8.60703 24.1994C9.12115 26.8023 10.3902 29.1932 12.2537 31.0698C14.1171 32.9464 16.4913 34.2244 19.076 34.7422C21.6607 35.2599 24.3398 34.9942 26.7746 33.9786C29.2093 32.963 31.2903 31.2431 32.7544 29.0364C34.2185 26.8298 35 24.2355 35 21.5816C34.9968 18.0238 33.5919 14.6127 31.0938 12.0969C28.5956 9.58118 25.2084 8.16641 21.6755 8.16314Z" fill="white"/>
<path fill-rule="evenodd" clip-rule="evenodd" d="M4.375 12.3363H10.0625C10.2946 12.3363 10.5171 12.2435 10.6812 12.0782C10.8453 11.913 10.9375 11.6889 10.9375 11.4552C10.9375 11.2215 10.8453 10.9973 10.6812 10.8321C10.5171 10.6668 10.2946 10.574 10.0625 10.574H4.375C4.26009 10.574 4.14631 10.5512 4.04015 10.5069C3.93399 10.4626 3.83753 10.3977 3.75628 10.3159C3.67503 10.2341 3.61058 10.1369 3.56661 10.03C3.52263 9.92313 3.5 9.80854 3.5 9.69283V7.93049C3.5 7.81477 3.52263 7.70019 3.56661 7.59328C3.61058 7.48637 3.67503 7.38924 3.75628 7.30741C3.83753 7.22559 3.93399 7.16068 4.04015 7.1164C4.14631 7.07212 4.26009 7.04932 4.375 7.04932H6.125C6.35706 7.04932 6.57963 6.95649 6.74372 6.79123C6.90781 6.62598 7 6.40186 7 6.16816C7 5.93445 6.90781 5.71033 6.74372 5.54508C6.57963 5.37982 6.35706 5.28699 6.125 5.28699H4.375C3.67909 5.28792 3.01195 5.56673 2.51987 6.06228C2.02779 6.55783 1.75093 7.22968 1.75 7.93049V9.69283C1.75093 10.3936 2.02779 11.0655 2.51987 11.561C3.01195 12.0566 3.67909 12.3354 4.375 12.3363ZM2.625 28.1974H7.41825H7.42C7.65206 28.1974 7.87462 28.1045 8.03872 27.9393C8.20281 27.774 8.295 27.5499 8.295 27.3162C8.295 27.0825 8.20281 26.8584 8.03872 26.6931C7.87462 26.5279 7.65206 26.435 7.42 26.435H2.625C2.51009 26.435 2.39631 26.4122 2.29015 26.3679C2.18399 26.3237 2.08753 26.2588 2.00628 26.1769C1.92503 26.0951 1.86058 25.998 1.81661 25.8911C1.77263 25.7842 1.75 25.6696 1.75 25.5539V23.7915C1.75 23.6758 1.77263 23.5612 1.81661 23.4543C1.86058 23.3474 1.92503 23.2503 2.00628 23.1684C2.08753 23.0866 2.18399 23.0217 2.29015 22.9774C2.39631 22.9331 2.51009 22.9103 2.625 22.9103H6.125C6.35706 22.9103 6.57963 22.8175 6.74372 22.6523C6.90781 22.487 7 22.2629 7 22.0292C7 21.7955 6.90781 21.5714 6.74372 21.4061C6.57963 21.2408 6.35706 21.148 6.125 21.148H2.625C1.92909 21.1489 1.26195 21.4278 0.769868 21.9233C0.277785 22.4189 0.000926024 23.0907 0 23.7915V25.5539C0.000926024 26.2547 0.277785 26.9265 0.769868 27.4221C1.26195 27.9176 1.92909 28.1964 2.625 28.1974Z" fill="white"/>
</svg>
