<svg width="15" height="15" viewBox="0 0 15 15" fill="none" xmlns="http://www.w3.org/2000/svg">
<path d="M14.6791 2.40951C14.57 1.30045 13.6975 0.427765 12.5977 0.318678L9.37107 0.00960042C8.64395 -0.0540338 7.9441 0.200502 7.42603 0.718667L0.718296 7.42754C0.263843 7.88207 0.00934171 8.47294 0.000252647 9.10928C-0.00883641 9.74562 0.227479 10.3365 0.681932 10.791L4.20849 14.3182C4.64477 14.7636 5.23555 15 5.85361 15H5.88997C6.52621 14.9909 7.11697 14.7364 7.57143 14.2818L14.2792 7.57296C14.7972 7.0548 15.0608 6.34576 14.9881 5.63669L14.6791 2.40951ZM10.1982 3.43675C10.5708 3.05494 11.1889 3.05494 11.5615 3.43675C11.9433 3.80946 11.9433 4.42762 11.5615 4.80034C11.3798 4.99124 11.1253 5.09125 10.8799 5.09125C10.6345 5.09125 10.38 4.99124 10.1982 4.80034C9.81644 4.42762 9.81644 3.80946 10.1982 3.43675Z" fill="#BCB8B6"/>
</svg>
