<svg width="40" height="40" viewBox="0 0 40 40" fill="none" xmlns="http://www.w3.org/2000/svg">
<path d="M20 0C25.3043 0 30.3914 2.10714 34.1421 5.85786C37.8929 9.60859 40 14.6957 40 20C40 25.3043 37.8929 30.3914 34.1421 34.1421C30.3914 37.8929 25.3043 40 20 40C14.6957 40 9.60859 37.8929 5.85786 34.1421C2.10714 30.3914 0 25.3043 0 20C0 14.6957 2.10714 9.60859 5.85786 5.85786C9.60859 2.10714 14.6957 0 20 0V0Z" fill="#D7FFDB"/>
<path opacity="0.9" d="M19.9995 4.00012C24.243 4.00012 28.3126 5.68583 31.3132 8.68641C34.3138 11.687 35.9995 15.7567 35.9995 20.0001C35.9995 24.2436 34.3138 28.3132 31.3132 31.3138C28.3126 34.3144 24.243 36.0001 19.9995 36.0001C15.756 36.0001 11.6864 34.3144 8.6858 31.3138C5.68522 28.3132 3.99951 24.2436 3.99951 20.0001C3.99951 15.7567 5.68522 11.687 8.6858 8.68641C11.6864 5.68583 15.756 4.00012 19.9995 4.00012Z" fill="#23E249"/>
<path d="M30.3497 15L18.5197 27L18.1697 27.33L17.8197 27L10.4897 19.58L12.8797 17.16L18.1697 22.51L27.9997 12.55L30.3497 15Z" fill="white"/>
</svg>
