<svg width="106" height="55" viewBox="0 0 106 55" fill="none" xmlns="http://www.w3.org/2000/svg">
<path d="M38.3045 2.04672C30.3834 4.34403 23.2922 9.66138 18.9966 17.4254C15.8019 23.1996 14.6879 29.5353 15.2106 35.6543C4.14735 41.3164 -1.78771 54.0845 1.7793 66.3835C5.82643 80.3379 20.5618 88.4055 34.5792 84.3401L88.8013 68.6144C101.005 65.075 108.066 52.3119 104.543 40.1626C101.217 28.6965 89.6375 21.9362 78.0866 24.173C75.8254 16.183 70.6625 9.01705 62.8089 4.7175C55.0335 0.459456 46.2255 -0.251832 38.3044 2.04548L38.3045 2.04672ZM40.2217 8.65705C46.4608 6.84755 53.3087 7.36486 59.4554 10.7299C66.558 14.6183 71.0516 21.396 72.2618 28.7737L72.261 28.7739C72.4147 29.7482 72.9806 30.6088 73.8151 31.1373C74.6495 31.6659 75.6727 31.8124 76.6243 31.5389L77.938 31.1579C86.5778 28.6521 95.4081 33.4865 97.9027 42.0877C100.397 50.6891 95.5236 59.4978 86.884 62.0035L32.6619 77.7292C22.233 80.7538 11.4297 74.8388 8.41876 64.4571C5.57514 54.6523 10.7482 44.493 20.0895 40.843L20.0898 40.8438C20.8212 40.5525 21.4314 40.0223 21.819 39.3392C22.2076 38.6567 22.3506 37.8629 22.2251 37.0896C21.3163 31.6739 22.169 25.9091 25.047 20.7072C28.4363 14.5825 33.9818 10.4648 40.2209 8.65532L40.2217 8.65705ZM45.9728 28.4868C44.8659 28.8079 44.3836 29.3318 43.9747 29.9994L34.997 44.5464C33.9681 46.2527 34.6041 48.3533 36.1474 49.2888C37.6906 50.2242 39.9596 49.6661 40.9105 48.1315L45.7783 40.2258L51.9185 61.3973C52.4478 63.2223 54.3629 64.2715 56.197 63.7396C58.031 63.2077 59.0877 61.2967 58.5583 59.4716L52.4181 38.3001L60.7604 42.3745C62.3849 43.163 64.5137 42.3748 65.4036 40.8038C66.3412 39.1489 65.4545 36.986 63.838 36.1818L48.4702 28.6956C47.6385 28.2862 47.0795 28.165 45.9727 28.4861L45.9728 28.4868Z" fill="url(#paint0_linear_17088_9451)"/>
<path d="M38.3045 2.04672C30.3834 4.34403 23.2922 9.66138 18.9966 17.4254C15.8019 23.1996 14.6879 29.5353 15.2106 35.6543C4.14735 41.3164 -1.78771 54.0845 1.7793 66.3835C5.82643 80.3379 20.5618 88.4055 34.5792 84.3401L88.8013 68.6144C101.005 65.075 108.066 52.3119 104.543 40.1626C101.217 28.6965 89.6375 21.9362 78.0866 24.173C75.8254 16.183 70.6625 9.01705 62.8089 4.7175C55.0335 0.459456 46.2255 -0.251832 38.3044 2.04548L38.3045 2.04672ZM40.2217 8.65705C46.4608 6.84755 53.3087 7.36486 59.4554 10.7299C66.558 14.6183 71.0516 21.396 72.2618 28.7737L72.261 28.7739C72.4147 29.7482 72.9806 30.6088 73.8151 31.1373C74.6495 31.6659 75.6727 31.8124 76.6243 31.5389L77.938 31.1579C86.5778 28.6521 95.4081 33.4865 97.9027 42.0877C100.397 50.6891 95.5236 59.4978 86.884 62.0035L32.6619 77.7292C22.233 80.7538 11.4297 74.8388 8.41876 64.4571C5.57514 54.6523 10.7482 44.493 20.0895 40.843L20.0898 40.8438C20.8212 40.5525 21.4314 40.0223 21.819 39.3392C22.2076 38.6567 22.3506 37.8629 22.2251 37.0896C21.3163 31.6739 22.169 25.9091 25.047 20.7072C28.4363 14.5825 33.9818 10.4648 40.2209 8.65532L40.2217 8.65705ZM45.9728 28.4868C44.8659 28.8079 44.3836 29.3318 43.9747 29.9994L34.997 44.5464C33.9681 46.2527 34.6041 48.3533 36.1474 49.2888C37.6906 50.2242 39.9596 49.6661 40.9105 48.1315L45.7783 40.2258L51.9185 61.3973C52.4478 63.2223 54.3629 64.2715 56.197 63.7396C58.031 63.2077 59.0877 61.2967 58.5583 59.4716L52.4181 38.3001L60.7604 42.3745C62.3849 43.163 64.5137 42.3748 65.4036 40.8038C66.3412 39.1489 65.4545 36.986 63.838 36.1818L48.4702 28.6956C47.6385 28.2862 47.0795 28.165 45.9727 28.4861L45.9728 28.4868Z" fill="#F0EDEA"/>
<defs>
<linearGradient id="paint0_linear_17088_9451" x1="20.026" y1="36.9518" x2="15.3106" y2="1.07611" gradientUnits="userSpaceOnUse">
<stop stop-color="#FFD8C2"/>
<stop offset="1" stop-color="#AD9FFF"/>
</linearGradient>
</defs>
</svg>
